<svg t="1740115147996" class="icon" viewBox="0 0 1024 1024" version="1.1" xmlns="http://www.w3.org/2000/svg" p-id="12204" width="200" height="200"><path d="M655.5 112C797.161 112 912 226.839 912 368.5S797.161 625 655.5 625c-27.31 0-54.018-4.284-79.353-12.518l-1.332-0.437-1.06-0.354 0.002 62.827a32 32 0 0 1-0.07 2.118c-1.157 17.458-16.108 30.715-33.518 29.844l-0.528-0.03-62.852-4.166 4.166 62.851a32 32 0 0 1 0 4.233c-1.157 17.458-16.108 30.715-33.518 29.844l-0.528-0.03-62.852-4.166 4.166 62.851c0.996 15.033-8.624 28.701-23.06 32.863l-0.44 0.123-72.84 19.892a32.34 32.34 0 0 1-7.773 1.13H144.464c-17.496 0-31.713-14.041-32-31.47V740.886a32 32 0 0 1 9.016-22.264l0.357-0.363 285.33-285.334-0.203-0.785c-5.027-19.682-7.713-40.018-7.947-60.683l-0.013-1.512L399 368.5C399 226.839 513.839 112 655.5 112z m0 64C549.185 176 463 262.185 463 368.5c0 15.072 1.727 29.889 5.102 44.248l0.37 1.541 0.178 0.688 0.222 0.813 0.342 1.192 0.239 0.81 0.454 1.504 0.994 3.201 1.37 4.3 1.652 5.081a32 32 0 0 1-7.45 32.247l-0.333 0.339L176.464 754.14v93.735H279.16l43.473-11.872-4.852-73.218a32 32 0 0 1 0-4.232c1.157-17.458 16.108-30.715 33.517-29.845l0.529 0.031 62.851 4.165-4.165-62.85a32 32 0 0 1 0-4.233c1.157-17.458 16.108-30.715 33.518-29.844l0.528 0.03 65.197 4.321-0.003-78.235a32 32 0 0 1 4.425-16.238c8.968-15.229 28.583-20.305 43.812-11.338C587.296 551.774 620.685 561 655.5 561 761.815 561 848 474.815 848 368.5S761.815 176 655.5 176z m34.5 94c35.346 0 64 28.654 64 64 0 35.346-28.654 64-64 64-35.346 0-64-28.654-64-64 0-35.346 28.654-64 64-64z" fill="#000000" fill-opacity=".65" p-id="12205"></path></svg>