<svg t="1740320993925" class="icon" viewBox="0 0 1024 1024" version="1.1" xmlns="http://www.w3.org/2000/svg" p-id="37182" width="200" height="200"><path d="M860.885487 656.520323c-10.588505 9.259985-23.804307 12.571371-39.657322 9.914331 8.159494-29.346418 14.772352-59.08941 19.828661-89.228974a610.038668 610.038668 0 0 0-14.871495-168.543618c-26.828178-60.427844-58.226863-116.602441-94.18614-168.543618a64.849636 64.849636 0 0 1-29.742991-29.742992 544.048885 544.048885 0 0 0 24.785826-99.143305c35.860133 50.136769 55.688794 106.32128 59.485983 168.543618l19.828661 19.828661c12.204541-84.965812-12.581285-156.011904-74.357479-213.158105-9.91433-6.612858-19.828661-6.612858-29.742991 0a1094.760199 1094.760199 0 0 1-79.314644 94.18614c-114.718718-31.448256-227.087739-24.835398-337.087236 19.828661-44.079113-51.772634-100.263624-76.55846-168.543618-74.357479a39.092205 39.092205 0 0 0-9.914331 19.828661L142.096528 299.604426c12.462313-22.267586 30.635281-35.493303 54.528818-39.657321 1.070748 19.967462-5.532196 36.484736-19.828661 49.571652-63.570687 84.460181-86.70082 180.302014-69.400314 287.515584 13.245546 62.827112 39.687065 119.011623 79.314644 168.543618-17.756566 1.32852-34.283755-1.982866-49.571652-9.914331-80.454792-136.1535-90.369122-278.255599-29.742992-426.31621a860.940629 860.940629 0 0 0-39.657321-178.457949c21.405039-66.842416 64.363833-85.025298 128.886296-54.528817A337.32518 337.32518 0 0 1 300.725816 160.8038c94.959457-43.028194 192.437154-49.631138 292.472748-19.828661a1051.206546 1051.206546 0 0 0 89.228975-84.271809c71.829324-16.100873 116.443811 11.99634 133.843461 84.271809 29.713248 67.387704 37.971886 136.788018 24.785826 208.20094 43.325624 100.25371 49.938483 202.708401 19.828661 307.344244z" fill="#DD8605" opacity=".901" p-id="37183"></path><path d="M285.85432 200.461122c-35.195873 12.125226-64.938865 31.953887-89.228974 59.485983-23.893536 4.164019-42.066504 17.389736-54.528818 39.657321L107.396371 145.932304a39.092205 39.092205 0 0 1 9.914331-19.828661c68.279994-2.200981 124.464505 22.584845 168.543618 74.357479z" fill="#FED646" p-id="37184"></path><path d="M622.941556 180.632461c14.465008-0.66426 27.680811 2.637212 39.657322 9.91433-14.722781 50.265655-46.111551 93.224449-94.18614 128.886296-7.118489-9.418614-15.367212-11.074307-24.785826-4.957165 8.328038 16.517275 3.370872 18.172968-14.871496 4.957165-12.88863 14.673209-29.405904 21.276153-49.571652 19.828661a941.41525 941.41525 0 0 1-84.271809-14.871495c8.328038-16.517275 3.370872-18.172968-14.871496-4.957166L315.597311 264.90427l9.914331-9.914331c-21.593412-4.382134-28.20627-14.296465-19.828661-29.742991-8.724611-7.019346-15.337469-15.287898-19.828661-24.785826 109.999497-44.664059 222.368518-51.276917 337.087236-19.828661z" fill="#FEE381" p-id="37185"></path><path d="M662.598878 190.546791c10.955335 10.905764 24.171138 17.518622 39.657322 19.828661a64.849636 64.849636 0 0 0 29.742991 29.742992 182.780597 182.780597 0 0 1-4.957165 59.485982c-18.916543 20.611893-40.400897 45.397719-64.443148 74.357479a48.897478 48.897478 0 0 1-29.742992 4.957165v29.742992c-51.861863-32.172002-108.046373-47.043498-168.543618-44.614488-39.181434 25.410429-49.095764 60.110586-29.742991 104.10047v19.828661c-33.094035-9.835016-66.148413-19.749346-99.143305-29.742991 21.980071-51.911434 5.452882-81.654426-49.571652-89.228974a296.339338 296.339338 0 0 0-69.400313 19.828661l-39.657322-79.314644c14.296465-13.086916 20.899409-29.604191 19.828661-49.571652 24.29011-27.532096 54.033101-47.360757 89.228974-59.485983 4.491192 9.497929 11.10405 17.76648 19.828661 24.785826-8.377609 15.446527-1.764751 25.360857 19.828661 29.742991l-9.914331 9.914331 64.443148 54.528817c18.242368-13.215803 23.199533-11.560109 14.871496 4.957166a941.41525 941.41525 0 0 0 84.271809 14.871495c20.165748 1.447492 36.683023-5.155452 49.571652-19.828661 18.242368 13.215803 23.199533 11.560109 14.871496-4.957165 9.418614-6.117142 17.667337-4.461449 24.785826 4.957165 48.074588-35.661847 79.463359-78.620641 94.18614-128.886296z" fill="#FFE177" p-id="37186"></path><path d="M702.2562 210.375452c-15.486184-2.310039-28.701987-8.922897-39.657322-19.828661-11.976511-7.277119-25.192314-10.578591-39.657322-9.91433 28.077384-29.742991 54.508989-61.15159 79.314644-94.18614 9.91433-6.612858 19.828661-6.612858 29.742991 0 61.776193 57.146201 86.562019 128.192293 74.357479 213.158105l-19.828661-19.828661c-3.797189-62.222338-23.62585-118.406849-59.485983-168.543618a544.048885 544.048885 0 0 1-24.785826 99.143305z" fill="#FDD344" p-id="37187"></path><path d="M632.855886 408.662062v9.91433c-77.173148-24.756083-143.262075-8.228894-198.286609 49.571652-19.352773-43.989884-9.438443-78.690041 29.742991-104.10047 60.497245-2.429011 116.681755 12.442485 168.543618 44.614488z" fill="#FCF5E3" p-id="37188"></path><path d="M335.425972 458.233714c-6.612858 0-9.91433 3.301472-9.91433 9.91433-63.89786-48.034931-129.986787-51.336403-198.28661-9.91433-0.852632-9.874673 2.458754-18.143225 9.914331-24.785826a480.765713 480.765713 0 0 1 79.314644-44.614487 296.339338 296.339338 0 0 1 69.400313-19.828661c55.024534 7.574548 71.551723 37.31754 49.571652 89.228974z" fill="#FBF4E2" p-id="37189"></path><path d="M632.855886 418.576392c53.596871 27.641153 63.511201 67.298475 29.742992 118.971966-9.835016-1.705265-16.43796 1.606122-19.828661 9.91433l-59.485983 9.914331c-69.856373 16.259502-119.428025-6.870631-148.714957-69.400314v-19.828661c55.024534-57.800547 121.113461-74.327736 198.286609-49.571652z" fill="#903E0E" p-id="37190"></path><path d="M503.96959 428.490723c23.368077-1.616036 46.49821 0.029743 69.400314 4.957165-35.612275 29.445561-38.913747 62.499939-9.914331 99.143304-39.706894 10.885935-74.40705 2.627298-104.10047-24.785826-4.639907-36.831738 10.231589-63.263343 44.614487-79.314643z" fill="#FBF7F5" p-id="37191"></path><path d="M731.999191 240.118444c35.959277 51.941177 67.357961 108.115774 94.18614 168.543618a610.038668 610.038668 0 0 1 14.871495 168.543618 533.737981 533.737981 0 0 0-178.457948-39.657322c33.76821-51.67349 23.853879-91.330812-29.742992-118.971966v-9.91433-29.742992a48.897478 48.897478 0 0 0 29.742992-4.957165c24.042251-28.959759 45.526606-53.745585 64.443148-74.357479 4.917508-19.560974 6.563287-39.389635 4.957165-59.485982z" fill="#FEDB5F" p-id="37192"></path><path d="M325.511642 468.148044c-2.478583 65.137151-37.178739 98.181615-104.10047 99.143305-81.22811 3.212243-112.626794-33.143607-94.18614-109.057635 68.299823-41.422073 134.38875-38.120601 198.28661 9.91433z" fill="#913E0C" p-id="37193"></path><path d="M593.198564 438.405053c14.65338-2.597555 27.869183 0.703917 39.657322 9.91433l-19.828661 9.914331c-12.026083-2.44884-18.638941-9.061698-19.828661-19.828661z" fill="#EFE3DC" p-id="37194"></path><path d="M186.711015 438.405053a83.617463 83.617463 0 0 1 39.657322 4.957165c-22.257672 28.711901-25.559144 60.110586-9.91433 94.18614-57.552688 13.533061-82.338515-9.597072-74.357479-69.400314 13.969292-12.700257 28.840787-22.614588 44.614487-29.742991z" fill="#F6EFEB" p-id="37195"></path><path d="M236.282668 448.319383h29.742991v29.742992h-29.742991v-29.742992z" fill="#EDDDD6" p-id="37196"></path><path d="M642.770217 547.462688c3.390701-8.308209 9.993645-11.619595 19.828661-9.91433a533.737981 533.737981 0 0 1 178.457948 39.657322 870.1907 870.1907 0 0 1-19.828661 89.228974c-24.270281 9.646644-50.7118 12.948116-79.314643 9.91433a182.780597 182.780597 0 0 0-4.957166-59.485983c-3.797189 5.512368-8.754354 8.823754-14.871495 9.914331-2.95447-49.224651-29.39599-75.66617-79.314644-79.314644z" fill="#FBEDC3" p-id="37197"></path><path d="M642.770217 547.462688c49.918654 3.648474 76.360173 30.089993 79.314644 79.314644a1276.004075 1276.004075 0 0 1-84.271809 99.143305 83.617463 83.617463 0 0 0-4.957166 39.657322h-109.057635c13.55289-16.279331 16.854362-32.796605 9.914331-49.571653-10.925592 23.69525-27.452781 41.868218-49.571653 54.528818a250.32693 250.32693 0 0 1-99.143304 0 148.457184 148.457184 0 0 1-29.742992-34.700157c37.505912-14.346036 60.645959-40.787556 69.400313-79.314644 17.925109 0.089229 34.452298-4.867936 49.571653-14.871495a1248.581037 1248.581037 0 0 1 109.057635-84.271809l59.485983-9.914331z" fill="#FCF8EC" p-id="37198"></path><path d="M176.796685 309.518757l39.657322 79.314644a480.765713 480.765713 0 0 0-79.314644 44.614487c-7.455577 6.642601-10.766963 14.911153-9.914331 24.785826-18.440655 75.914028 12.95803 112.269878 94.18614 109.057635 66.921731-0.96169 101.621887-34.006154 104.10047-99.143305 0-6.612858 3.301472-9.91433 9.91433-9.91433 32.994892 9.993645 66.04927 19.907976 99.143305 29.742991 29.286932 62.529682 78.858585 85.659815 148.714957 69.400314a1248.581037 1248.581037 0 0 0-109.057635 84.271809c-15.119354 10.003559-31.646543 14.960725-49.571653 14.871495-0.763403-12.392913-7.376262-20.65155-19.82866-24.785826a302.377165 302.377165 0 0 0-109.057636 0c-13.116659 8.090094-19.729518 19.660117-19.828661 34.700157a1009.873702 1009.873702 0 0 1-109.057635-64.443148 182.780597 182.780597 0 0 0-59.485983-4.957165c-17.300507-107.21357 5.829626-203.055402 69.400314-287.515584z" fill="#FEDA5B" p-id="37199"></path><path d="M107.396371 597.034341a182.780597 182.780597 0 0 1 59.485983 4.957165 1009.873702 1009.873702 0 0 0 109.057635 64.443148c9.468186 29.306761 29.296847 49.135422 59.485983 59.485983 10.727306 32.479347-2.498411 49.006536-39.657322 49.571652-24.161223-0.971604-43.989884-10.885935-59.485982-29.742991-7.901721 4.530849-11.203193 11.143707-9.914331 19.828661h-39.657322c-39.627579-49.531995-66.069098-105.716506-79.314644-168.543618z" fill="#FCF6E7" p-id="37200"></path><path d="M692.341869 735.834967a237.497786 237.497786 0 0 1 89.228974-29.742991c24.022423-16.229759 50.463942-21.186924 79.314644-14.871496a394.471381 394.471381 0 0 1-79.314644 69.400313c-33.292322 3.1131-63.035313-5.155452-89.228974-24.785826z" fill="#F71F1B" p-id="37201"></path><path d="M424.654946 656.520323c-8.754354 38.527088-31.894401 64.968608-69.400313 79.314644a148.457184 148.457184 0 0 0 29.742992 34.700157c33.044463 6.612858 66.098841 6.612858 99.143304 0 22.118871-12.6606 38.64606-30.833568 49.571653-54.528818 6.940031 16.775047 3.638559 33.292322-9.914331 49.571653a8010.441933 8010.441933 0 0 1-49.571652 39.657321h-188.372279a9071.33478 9071.33478 0 0 0-59.485983-39.657321c-1.288863-8.684953 2.012609-15.297812 9.914331-19.828661 15.496099 18.857057 35.324759 28.771387 59.485982 29.742991 37.158911-0.565117 50.384627-17.092306 39.657322-49.571652-30.189136-10.350561-50.017797-30.179222-59.485983-59.485983 0.099143-15.040039 6.712002-26.610063 19.828661-34.700157a302.377165 302.377165 0 0 1 109.057636 0c12.452399 4.134276 19.065257 12.392913 19.82866 24.785826z" fill="#8C3907" p-id="37202"></path><path d="M741.913522 676.348984c8.109922 9.022041 24.627197 13.979206 49.571652 14.871496-5.512368 3.797189-8.823754 8.754354-9.914331 14.871496a237.497786 237.497786 0 0 0-89.228974 29.742991c-13.939549 4.689478-20.552407 14.603809-19.828661 29.742992-8.030608 50.097112 11.798053 89.754434 59.485983 118.971965 3.301472 9.91433 9.91433 16.527189 19.828661 19.828661v59.485983h-29.742991c-5.63134-35.364417-25.460001-58.49455-59.485983-69.400313-1.586293-16.388388-8.189237-29.604191-19.828661-39.657322 2.81567-18.985943-0.485802-35.503217-9.914331-49.571653h-158.629287a8010.441933 8010.441933 0 0 0 49.571652-39.657321h109.057635a83.617463 83.617463 0 0 1 4.957166-39.657322 1276.004075 1276.004075 0 0 0 84.271809-99.143305c6.117142-1.090576 11.074307-4.401963 14.871495-9.914331 4.917508 19.560974 6.563287 39.389635 4.957166 59.485983z" fill="#4B752B" p-id="37203"></path><path d="M672.513208 765.577959c79.96899 8.932812 144.412138 45.288662 193.329444 109.057635 6.612858 6.612858 6.612858 13.215803 0 19.828661a476.29435 476.29435 0 0 0-133.843461-9.914331c-47.68793-29.217532-67.516591-68.874854-59.485983-118.971965z" fill="#E92221" p-id="37204"></path><path d="M137.139363 755.663628c15.287898 7.931464 31.815086 11.242851 49.571652 9.914331h39.657322a9071.33478 9071.33478 0 0 1 59.485983 39.657321h-109.057635c-48.877649 2.994128-96.793608-0.29743-143.757792-9.91433-6.781402-12.73-5.125709-24.29011 4.957165-34.700157a500.088743 500.088743 0 0 1 99.143305-4.957165z" fill="#477728" opacity=".89" p-id="37205"></path><path d="M751.827852 904.378585c-9.91433-3.301472-16.527189-9.91433-19.828661-19.828661 45.596006-2.974299 90.210493 0.327173 133.843461 9.914331 6.612858-6.612858 6.612858-13.215803 0-19.828661-48.917307-63.768974-113.360455-100.124823-193.329444-109.057635-0.723746-15.139183 5.889112-25.053513 19.828661-29.742992 26.193661 19.630374 55.936653 27.898926 89.228974 24.785826a394.471381 394.471381 0 0 0 79.314644-69.400313c-28.850702-6.315429-55.292221-1.358263-79.314644 14.871496 1.090576-6.117142 4.401963-11.074307 9.914331-14.871496-24.944455-0.89229-41.46173-5.849455-49.571652-14.871496 28.602843 3.033785 55.044363-0.267687 79.314643-9.91433 15.853014 2.657041 29.068817-0.654346 39.657322-9.914331 9.874673 0.852632 18.143225-2.458754 24.785826-9.91433 8.318123 26.173832 3.360958 49.303965-14.871495 69.400313 40.539697 29.197703 48.798335 65.553553 24.785826 109.057635a93.868881 93.868881 0 0 1-24.785826 14.871496c20.056691 26.173832 23.368077 54.261131 9.91433 84.271809-40.222439-18.440655-83.181233-25.043599-128.886296-19.828661z" fill="#C01F1A" p-id="37206"></path><path d="M176.796685 805.23528h59.485983c10.707477 20.254977 27.224751 33.47078 49.571652 39.657322 31.299541 26.401862 67.655391 37.971886 109.057635 34.700157l-29.742991-9.914331c-11.857539-6.483972-11.857539-11.441137 0-14.871495 65.285866 16.864276 128.073321 10.261332 188.372279-19.828661l9.91433 4.957165c-45.705063 37.148996-98.588102 53.676185-158.629287 49.571652 49.571652 6.612858 99.143305 6.612858 148.714957 0 33.361722-5.006737 63.104713-16.576761 89.228974-34.700156 11.639424 10.053131 18.242368 23.268934 19.828661 39.657322-182.493081 73.197502-344.423841 43.45451-485.802193-89.228975z" fill="#DE8A17" opacity=".88" p-id="37207"></path><path d="M236.282668 805.23528h396.573218c-19.759261 24.35951-44.545087 30.972368-74.357478 19.828661a1218.610016 1218.610016 0 0 1-272.644088 19.828661c-22.346901-6.186542-38.864175-19.402345-49.571652-39.657322z" fill="#FEF8E2" p-id="37208"></path><path d="M632.855886 805.23528c9.428528 14.068435 12.73 30.58571 9.914331 49.571653-26.124261 18.123396-55.867252 29.69342-89.228974 34.700156-49.571652 6.612858-99.143305 6.612858-148.714957 0 60.041185 4.104533 112.924224-12.422656 158.629287-49.571652l-9.91433-4.957165c-60.298958 30.089993-123.086413 36.692937-188.372279 19.828661-11.857539 3.430358-11.857539 8.387524 0 14.871495l29.742991 9.914331c-41.402244 3.271729-77.758094-8.298295-109.057635-34.700157 91.697643 3.608816 182.572396-2.994128 272.644088-19.828661 29.812392 11.143707 54.598218 4.530849 74.357478-19.828661z" fill="#FDEFC5" p-id="37209"></path></svg>